# xmcd
#
# Track frame offsets: 
#        200
#        15467
#        31152
#        46035
#        60207
#        75455
#        89150
#        100545
#        113147
#        128310
#        142062
#        156942
#        170747
#        184467
#        199497
#        211567
#
# Disc length: 2984 seconds
#
# Revision: 2
# Processed by: cddbd v1.5.1PL0 Copyright (c) Steve Scherf et al.
# Submitted via: ExactAudioCopy v0.90b4
#
DISCID=ca0ba610
DTITLE=Fats Waller - Great Original Performances 1927-1934
DYEAR=1985
DGENRE=Jazz
TTITLE0=I'm Crazy 'bout My Baby
TTITLE1=Red Hot Dan
TTITLE2=The Dingah's Stomp
TTITLE3=Geechee
TTITLE4=Harlem Fuss
TTITLE5=Won't You  Get Off Of It Please
TTITLE6=Ridin' But Walkin'
TTITLE7=Handful Of Keys
TTITLE8=Draggin' My Heart Around
TTITLE9=That's How I Feel Today
TTITLE10=Dallas Blues
TTITLE11=Sugar
TTITLE12=Royal Garden Blues
TTITLE13=Yellow Dog Blues
TTITLE14=Serenade To A Wealthy Widow
TTITLE15=Alligator Crawl
EXTD=
EXTT0=
EXTT1=
EXTT2=
EXTT3=
EXTT4=
EXTT5=
EXTT6=
EXTT7=
EXTT8=
EXTT9=
EXTT10=
EXTT11=
EXTT12=
EXTT13=
EXTT14=
EXTT15=
PLAYORDER=
